<?xml version="1.0" encoding="UTF-8"?>
<svg id="Layer_1" data-name="Layer 1" xmlns="http://www.w3.org/2000/svg" viewBox="0 0 2279.41 1722.88">
  <defs>
    <style>
      .cls-1 {
        fill: #bbbcbf;
      }

      .cls-1, .cls-2, .cls-3 {
        fill-rule: evenodd;
      }

      .cls-2 {
        fill: #fff;
      }
    </style>
  </defs>
  <path class="cls-1" d="M1142.66,1296.6V426.29h1136.75v870.31h-1136.75Z"/>
  <path class="cls-3" d="M2279.41,426.29V0H0v426.29h2279.41ZM2279.41,1722.88v-426.28H0v426.28h2279.41Z"/>
  <path class="cls-2" d="M186.79,136.93h-50.32v-19.23h122.54v19.23h-50.61v192.96h-21.61v-192.96ZM611.51,113.97c63.64,0,115.73,49.39,115.73,109.97s-52.38,109.7-116.03,109.7-115.73-49.67-115.73-109.41,52.1-110.26,116.03-110.26h0Z"/>
  <path class="cls-3" d="M611.21,314.39c51.5,0,94.12-40.78,94.12-90.45s-42.32-90.74-93.82-90.74-94.12,41.06-94.12,91.59,42.92,89.6,93.82,89.6h0Z"/>
  <path class="cls-2" d="M1003.44,117.7h33.73l81.41,180.6,81.7-180.6h33.73v212.2h-21.61v-188.94l-84.37,188.94h-19.23l-83.76-188.94v188.94h-21.61V117.7h0ZM1494.53,117.7h33.75l81.39,180.6,81.7-180.6h33.75v212.2h-21.61v-188.94l-84.36,188.94h-19.26l-83.75-188.94v188.94h-21.61V117.7h0ZM2059.03,258.97l-76.07-141.27h24.27l62.46,118.88,63.63-118.88h23.99l-76.68,141.27v70.93h-21.61v-70.93h0ZM133.5,1402.03h21.61v93.29h113.67v-93.29h21.61v212.17h-21.61v-99.63h-113.67v99.63h-21.61v-212.17ZM451.1,1402.03h21.61v212.17h-21.61v-212.17ZM636.36,1402.03h21.61v192.93h90.88v19.25h-112.49v-212.17h0ZM896.25,1402.03h111.89v19.22h-90.28v76.65h87.03v19.26h-87.03v97.04h-21.61v-212.17ZM1159.38,1402.03h21.61v212.17h-21.61v-212.17ZM1569.9,1520.73c-5.32,57.7-55.35,101.63-116.33,101.63-64.24,0-118.09-49.96-118.09-109.97s52.67-109.69,117.79-109.69c30.78,0,58.31,10.36,81.11,30.73,14.49,12.92,17.46,16.67,22.19,29.58h-24.88c-14.49-24.42-45.87-41.06-78.12-41.06-52.68,0-96.21,40.76-96.21,90.44s43.51,90.74,97.38,90.74c40.56,0,79.34-27.56,88.82-63.18h-123.13v-19.22h149.46ZM1729.71,1402.03h119.89v19.22h-98.28v76.09h95.02v19.23h-95.02v78.38h98.28v19.25h-119.89v-212.17ZM2007.95,1402.03h54.77c25.73,0,41.72,2.28,53.58,8.03,23.97,11.19,38.75,34.18,38.75,60.57,0,35.34-26.63,62.03-64.52,64.32l61.28,79.26h-27.24l-73.72-96.18h8.29c29.61-.3,37.61-1.44,49.44-7.76,15.13-7.98,24.59-23.69,24.58-40.79,0-16.37-9.47-32.45-23.68-40.21-10.66-6.03-21.61-8.03-42.02-8.03h-37.9v192.95h-21.61v-212.16h0Z"/>
</svg>